<?xml version="1.0" encoding="utf-8"?>
<!-- Generator: Adobe Illustrator 25.0.1, SVG Export Plug-In . SVG Version: 6.00 Build 0)  -->
<svg version="1.1" xmlns="http://www.w3.org/2000/svg" xmlns:xlink="http://www.w3.org/1999/xlink" x="0px" y="0px"
	 viewBox="0 0 1024 720" style="enable-background:new 0 0 1024 720;" xml:space="preserve">
<style type="text/css">
	.st0{fill:#101828;}
	.st1{fill:#00AAFF;}
	.st2{fill:#FFFFFF;}
</style>
<g id="Layer_1">
	<g>
		<g>
			<path class="st0" d="M275.96,428.57h-4.56l-2.09-4.9h-11.03l-2.02,4.9h-4.04l9.84-22.4h3.91L275.96,428.57z M267.63,419.63
				l-3.74-9.11l-3.88,9.11H267.63z"/>
			<path class="st0" d="M300.92,423.27c0,2.09-0.31,3.49-0.93,4.21c-0.62,0.72-1.75,1.09-3.39,1.09h-10.38
				c-1.65,0-2.77-0.36-3.39-1.09c-0.62-0.72-0.93-2.12-0.93-4.21v-11.8c0-2.09,0.31-3.49,0.93-4.21c0.62-0.72,1.75-1.09,3.39-1.09
				h10.38c2.07,0,3.35,0.62,3.85,1.87c0.32,0.72,0.47,2.58,0.47,5.56l-4.04,0.82v-4.26h-10.92v14.19h10.92v-4.82l4.04,1.08V423.27z"
				/>
			<path class="st0" d="M329.28,423.27c0,2.09-0.31,3.49-0.92,4.21c-0.62,0.72-1.75,1.09-3.39,1.09h-10.38
				c-1.65,0-2.77-0.36-3.39-1.09c-0.62-0.72-0.92-2.12-0.92-4.21v-11.8c0-2.09,0.31-3.49,0.92-4.21c0.62-0.72,1.75-1.09,3.39-1.09
				h10.38c2.07,0,3.35,0.62,3.84,1.87c0.31,0.72,0.47,2.58,0.47,5.56l-4.04,0.82v-4.26h-10.93v14.19h10.93v-4.82l4.04,1.08V423.27z"
				/>
			<path class="st0" d="M360.08,423.27c0,2.09-0.32,3.49-0.93,4.21c-0.62,0.72-1.75,1.09-3.39,1.09h-12.82
				c-1.65,0-2.77-0.36-3.39-1.09c-0.62-0.72-0.93-2.12-0.93-4.21v-11.8c0-2.09,0.31-3.49,0.93-4.21c0.62-0.72,1.75-1.09,3.39-1.09
				h12.82c1.64,0,2.77,0.36,3.39,1.09c0.62,0.72,0.93,2.13,0.93,4.21V423.27z M356.03,424.35v-14.19h-13.35v14.19H356.03z"/>
			<path class="st0" d="M389.59,423.27c0,2.09-0.31,3.49-0.93,4.21c-0.62,0.72-1.75,1.09-3.39,1.09h-10.99
				c-1.64,0-2.77-0.36-3.39-1.09c-0.62-0.72-0.93-2.12-0.93-4.21v-17.1h4.05v18.18h11.54v-18.18h4.04V423.27z"/>
			<path class="st0" d="M420.28,428.57h-2.77l-12.78-13.84c-0.54-0.58-1.02-1.19-1.45-1.83c0.11,1.45,0.16,2.59,0.16,3.43v12.24
				h-3.64v-22.4h2.76l12.24,13.2c0.88,0.95,1.54,1.76,1.99,2.43c-0.12-2.09-0.17-3.37-0.17-3.86v-11.76h3.65V428.57z"/>
			<path class="st0" d="M446.62,410.16h-8.03v18.4h-4.05v-18.4h-7.99v-3.99h20.07V410.16z"/>
			<path class="st0" d="M471,428.57h-4.55l-2.09-4.9h-11.03l-2.02,4.9h-4.05l9.85-22.4h3.91L471,428.57z M462.67,419.63l-3.74-9.11
				l-3.88,9.11H462.67z"/>
			<path class="st0" d="M498.39,428.57h-2.77l-12.78-13.84c-0.54-0.58-1.03-1.19-1.45-1.83c0.11,1.45,0.17,2.59,0.17,3.43v12.24
				h-3.64v-22.4h2.76l12.24,13.2c0.88,0.95,1.55,1.76,2,2.43c-0.12-2.09-0.18-3.37-0.18-3.86v-11.76h3.65V428.57z"/>
			<path class="st0" d="M527.26,423.27c0,2.09-0.32,3.49-0.93,4.21c-0.62,0.72-1.75,1.09-3.38,1.09h-10.39
				c-1.64,0-2.77-0.36-3.39-1.09c-0.62-0.72-0.93-2.12-0.93-4.21v-11.8c0-2.09,0.31-3.49,0.93-4.21c0.62-0.72,1.75-1.09,3.39-1.09
				h10.39c2.07,0,3.34,0.62,3.84,1.87c0.31,0.72,0.47,2.58,0.47,5.56l-4.05,0.82v-4.26h-10.93v14.19h10.93v-4.82l4.05,1.08V423.27z"
				/>
			<path class="st0" d="M554.27,406.17l-9.01,12.24v10.16h-4.08v-10.02l-9.04-12.37h5.4l5.97,8.6l6-8.6H554.27z"/>
			<path class="st0" d="M593.63,423.27c0,2.09-0.32,3.49-0.95,4.21c-0.63,0.72-1.76,1.09-3.41,1.09h-10.75
				c-1.78,0-2.95-0.41-3.51-1.22c-0.56-0.81-0.84-2.37-0.84-4.68l3.57-0.96v2.65h12.31v-5.12h-10.86c-1.64,0-2.77-0.36-3.39-1.08
				c-0.62-0.72-0.93-2.13-0.93-4.21v-2.47c0-2.09,0.31-3.49,0.93-4.21c0.62-0.72,1.75-1.09,3.39-1.09h9.88
				c1.66,0,2.8,0.37,3.41,1.11c0.6,0.74,0.91,2.16,0.91,4.27l-3.58,1.08v-2.56h-11.4v4.82h10.86c1.65,0,2.78,0.36,3.41,1.09
				c0.63,0.72,0.95,2.12,0.95,4.21V423.27z"/>
			<path class="st0" d="M621.35,428.57h-17.97v-22.4h17.81v3.82h-13.76v4.99h8.03v3.82h-8.03v5.55h13.93V428.57z"/>
			<path class="st0" d="M650.83,428.57h-5.8l-7.02-8.46h-3.84v8.46h-3.98v-22.4h14.9c2.61,0,3.91,1.45,3.91,4.34v5.25
				c0,2.17-0.67,3.51-2.02,4.03c-0.52,0.2-1.91,0.31-4.18,0.31L650.83,428.57z M645.1,414.5v-2.69c0-0.75-0.16-1.24-0.5-1.47
				c-0.25-0.2-0.69-0.3-1.32-0.3h-9.11v6.25h9.11c0.62,0,1.06-0.1,1.32-0.3C644.93,415.75,645.1,415.26,645.1,414.5z"/>
			<path class="st0" d="M676.84,406.17l-9.58,22.4h-2.8l-10.05-22.4h4.62l7.05,16.19l6.71-16.19H676.84z"/>
			<path class="st0" d="M686.95,428.57h-4.04v-22.4h4.04V428.57z"/>
			<path class="st0" d="M715.86,423.27c0,2.09-0.32,3.49-0.93,4.21c-0.62,0.72-1.75,1.09-3.39,1.09h-10.39
				c-1.64,0-2.77-0.36-3.39-1.09c-0.62-0.72-0.93-2.12-0.93-4.21v-11.8c0-2.09,0.31-3.49,0.93-4.21c0.62-0.72,1.75-1.09,3.39-1.09
				h10.39c2.07,0,3.35,0.62,3.85,1.87c0.32,0.72,0.47,2.58,0.47,5.56l-4.05,0.82v-4.26h-10.92v14.19h10.92v-4.82l4.05,1.08V423.27z"
				/>
			<path class="st0" d="M743.54,428.57h-17.97v-22.4h17.81v3.82h-13.76v4.99h8.03v3.82h-8.03v5.55h13.93V428.57z"/>
			<path class="st0" d="M771.27,423.27c0,2.09-0.32,3.49-0.95,4.21c-0.63,0.72-1.76,1.09-3.41,1.09h-10.75
				c-1.78,0-2.95-0.41-3.51-1.22c-0.56-0.81-0.84-2.37-0.84-4.68l3.57-0.96v2.65h12.31v-5.12h-10.86c-1.64,0-2.77-0.36-3.39-1.08
				c-0.62-0.72-0.93-2.13-0.93-4.21v-2.47c0-2.09,0.31-3.49,0.93-4.21c0.62-0.72,1.75-1.09,3.39-1.09h9.88
				c1.66,0,2.8,0.37,3.41,1.11c0.6,0.74,0.91,2.16,0.91,4.27l-3.58,1.08v-2.56h-11.4v4.82h10.86c1.64,0,2.78,0.36,3.41,1.09
				c0.63,0.72,0.95,2.12,0.95,4.21V423.27z"/>
		</g>
		<g>
			<path class="st0" d="M451.35,474.65h-17.09v-22.4h4.04v18.18h13.05V474.65z"/>
			<path class="st0" d="M462.69,474.65h-4.05v-22.4h4.05V474.65z"/>
			<path class="st0" d="M495.64,474.65h-3.74v-13.93c0-0.49,0.05-1.26,0.14-2.3c-0.21,0.55-0.54,1.33-1.02,2.35l-6.54,11.2h-0.81
				l-6.54-11.24c-0.47-0.81-0.82-1.58-1.05-2.3c0.07,0.9,0.1,1.64,0.1,2.21v14.02h-3.27v-22.4h3.27l8.2,13.54l8.03-13.54h3.23
				V474.65z"/>
			<path class="st0" d="M509.57,474.65h-4.04v-22.4h4.04V474.65z"/>
			<path class="st0" d="M535.94,456.25h-8.03v18.4h-4.04v-18.4h-7.99v-3.99h20.07V456.25z"/>
			<path class="st0" d="M560.23,474.65h-17.97v-22.4h17.81v3.82H546.3v4.99h8.03v3.82h-8.03v5.55h13.93V474.65z"/>
			<path class="st0" d="M590.21,463.32c0,4.35-1.28,7.54-3.85,9.59c-1.47,1.16-3.84,1.74-7.15,1.74h-10.15v-22.4h11.19
				c3.02,0,5.37,0.87,7.08,2.6C589.25,456.77,590.21,459.59,590.21,463.32z M586.03,463.24c0-4.66-1.91-6.99-5.74-6.99h-7.18v14.19
				h5.23c2.47,0,4.27-0.4,5.39-1.21C585.26,468.13,586.03,466.13,586.03,463.24z"/>
		</g>
		<rect x="615.32" y="462.26" class="st1" width="155.95" height="2.16"/>
		<rect x="252.22" y="462.26" class="st1" width="155.95" height="2.16"/>
		<g>
			<path class="st1" d="M566.69,305.23c2.34-0.32,4.57-1.11,6.67-2.39c8.03-4.77,13.59-15.27,13.59-27.36
				c0-8.27-2.6-15.74-6.8-21.31c-4.2-5.41-10.01-8.74-16.44-8.74h-56.2c5.22,4.78,9.14,11.75,10.94,19.88h45.27
				c2.72,0,4.57,1.59,5.57,2.87c0.86,1.11,2.34,3.65,2.34,7.31c0,3.98-1.85,7.63-4.69,9.22c-0.99,0.64-2.11,0.96-3.22,0.96
				l-45.35,0.14c-0.31,1.34-0.66,2.66-1.09,3.93c3.81,4.38,6.7,9.81,8.56,15.8h14.15c5.57,0,10.38,3.82,13.1,9.54l0.37,0.96
				l8.27,20.84l7.91,19.88h17.3l-7.91-19.88L566.69,305.23z"/>
			<path class="st1" d="M514.4,275.34c0,0.97-0.07,1.94-0.17,2.92v-6.36C514.33,273.04,514.4,274.15,514.4,275.34z"/>
			<path class="st1" d="M522.16,312.16c-0.45-2.3-1.14-4.51-1.96-6.63c-2.16-5.66-5.46-10.48-9.51-13.97
				c1.96-3.85,3.19-8.4,3.54-13.3v-6.36c-1.03-11.54-7.18-21.13-15.42-24.88c-1.65-0.75-3.37-1.28-5.15-1.55
				c-0.86-0.13-1.72-0.18-2.61-0.18h-54.5v111.33h58.97c1.1,0,2.2-0.13,3.3-0.31c5.94-0.88,11.26-4.24,15.42-9.24
				c2.03-2.43,3.78-5.21,5.15-8.31c2.33-5.22,3.67-11.23,3.67-17.63C523.05,318.03,522.74,315.03,522.16,312.16z M498.81,335.89
				c-1.07,0.4-2.16,0.66-3.3,0.66v0.17H452v-71.6h39.18c0.86,0,1.68,0.27,2.47,0.57c2.51,1.11,4.46,3.76,5.15,7.07v5.13
				c-0.69,3.31-2.64,5.97-5.15,7.03c-0.79,0.35-1.62,0.57-2.47,0.57h-34.1v19.89h38.43c1.13,0,2.23,0.27,3.3,0.66
				c5.05,1.86,8.83,7.82,8.83,14.9C507.63,328.07,503.85,334.03,498.81,335.89z"/>
		</g>
	</g>
	<rect x="0.63" y="0.05" class="st2" width="1022.22" height="719.05"/>
</g>
<g id="Layer_1_copy">
	<g>
		<g>
			<path class="st0" d="M275.96,428.57h-4.56l-2.09-4.9h-11.03l-2.02,4.9h-4.04l9.84-22.4h3.91L275.96,428.57z M267.63,419.63
				l-3.74-9.11l-3.88,9.11H267.63z"/>
			<path class="st0" d="M300.92,423.27c0,2.09-0.31,3.49-0.93,4.21c-0.62,0.72-1.75,1.09-3.39,1.09h-10.38
				c-1.65,0-2.77-0.36-3.39-1.09c-0.62-0.72-0.93-2.12-0.93-4.21v-11.8c0-2.09,0.31-3.49,0.93-4.21c0.62-0.72,1.75-1.09,3.39-1.09
				h10.38c2.07,0,3.35,0.62,3.85,1.87c0.32,0.72,0.47,2.58,0.47,5.56l-4.04,0.82v-4.26h-10.92v14.19h10.92v-4.82l4.04,1.08V423.27z"
				/>
			<path class="st0" d="M329.28,423.27c0,2.09-0.31,3.49-0.92,4.21c-0.62,0.72-1.75,1.09-3.39,1.09h-10.38
				c-1.65,0-2.77-0.36-3.39-1.09c-0.62-0.72-0.92-2.12-0.92-4.21v-11.8c0-2.09,0.31-3.49,0.92-4.21c0.62-0.72,1.75-1.09,3.39-1.09
				h10.38c2.07,0,3.35,0.62,3.84,1.87c0.31,0.72,0.47,2.58,0.47,5.56l-4.04,0.82v-4.26h-10.93v14.19h10.93v-4.82l4.04,1.08V423.27z"
				/>
			<path class="st0" d="M360.08,423.27c0,2.09-0.32,3.49-0.93,4.21c-0.62,0.72-1.75,1.09-3.39,1.09h-12.82
				c-1.65,0-2.77-0.36-3.39-1.09c-0.62-0.72-0.93-2.12-0.93-4.21v-11.8c0-2.09,0.31-3.49,0.93-4.21c0.62-0.72,1.75-1.09,3.39-1.09
				h12.82c1.64,0,2.77,0.36,3.39,1.09c0.62,0.72,0.93,2.13,0.93,4.21V423.27z M356.03,424.35v-14.19h-13.35v14.19H356.03z"/>
			<path class="st0" d="M389.59,423.27c0,2.09-0.31,3.49-0.93,4.21c-0.62,0.72-1.75,1.09-3.39,1.09h-10.99
				c-1.64,0-2.77-0.36-3.39-1.09c-0.62-0.72-0.93-2.12-0.93-4.21v-17.1h4.05v18.18h11.54v-18.18h4.04V423.27z"/>
			<path class="st0" d="M420.28,428.57h-2.77l-12.78-13.84c-0.54-0.58-1.02-1.19-1.45-1.83c0.11,1.45,0.16,2.59,0.16,3.43v12.24
				h-3.64v-22.4h2.76l12.24,13.2c0.88,0.95,1.54,1.76,1.99,2.43c-0.12-2.09-0.17-3.37-0.17-3.86v-11.76h3.65V428.57z"/>
			<path class="st0" d="M446.62,410.16h-8.03v18.4h-4.05v-18.4h-7.99v-3.99h20.07V410.16z"/>
			<path class="st0" d="M471,428.57h-4.55l-2.09-4.9h-11.03l-2.02,4.9h-4.05l9.85-22.4h3.91L471,428.57z M462.67,419.63l-3.74-9.11
				l-3.88,9.11H462.67z"/>
			<path class="st0" d="M498.39,428.57h-2.77l-12.78-13.84c-0.54-0.58-1.03-1.19-1.45-1.83c0.11,1.45,0.17,2.59,0.17,3.43v12.24
				h-3.64v-22.4h2.76l12.24,13.2c0.88,0.95,1.55,1.76,2,2.43c-0.12-2.09-0.18-3.37-0.18-3.86v-11.76h3.65V428.57z"/>
			<path class="st0" d="M527.26,423.27c0,2.09-0.32,3.49-0.93,4.21c-0.62,0.72-1.75,1.09-3.38,1.09h-10.39
				c-1.64,0-2.77-0.36-3.39-1.09c-0.62-0.72-0.93-2.12-0.93-4.21v-11.8c0-2.09,0.31-3.49,0.93-4.21c0.62-0.72,1.75-1.09,3.39-1.09
				h10.39c2.07,0,3.34,0.62,3.84,1.87c0.31,0.72,0.47,2.58,0.47,5.56l-4.05,0.82v-4.26h-10.93v14.19h10.93v-4.82l4.05,1.08V423.27z"
				/>
			<path class="st0" d="M554.27,406.17l-9.01,12.24v10.16h-4.08v-10.02l-9.04-12.37h5.4l5.97,8.6l6-8.6H554.27z"/>
			<path class="st0" d="M593.63,423.27c0,2.09-0.32,3.49-0.95,4.21c-0.63,0.72-1.76,1.09-3.41,1.09h-10.75
				c-1.78,0-2.95-0.41-3.51-1.22c-0.56-0.81-0.84-2.37-0.84-4.68l3.57-0.96v2.65h12.31v-5.12h-10.86c-1.64,0-2.77-0.36-3.39-1.08
				c-0.62-0.72-0.93-2.13-0.93-4.21v-2.47c0-2.09,0.31-3.49,0.93-4.21c0.62-0.72,1.75-1.09,3.39-1.09h9.88
				c1.66,0,2.8,0.37,3.41,1.11c0.6,0.74,0.91,2.16,0.91,4.27l-3.58,1.08v-2.56h-11.4v4.82h10.86c1.65,0,2.78,0.36,3.41,1.09
				c0.63,0.72,0.95,2.12,0.95,4.21V423.27z"/>
			<path class="st0" d="M621.35,428.57h-17.97v-22.4h17.81v3.82h-13.76v4.99h8.03v3.82h-8.03v5.55h13.93V428.57z"/>
			<path class="st0" d="M650.83,428.57h-5.8l-7.02-8.46h-3.84v8.46h-3.98v-22.4h14.9c2.61,0,3.91,1.45,3.91,4.34v5.25
				c0,2.17-0.67,3.51-2.02,4.03c-0.52,0.2-1.91,0.31-4.18,0.31L650.83,428.57z M645.1,414.5v-2.69c0-0.75-0.16-1.24-0.5-1.47
				c-0.25-0.2-0.69-0.3-1.32-0.3h-9.11v6.25h9.11c0.62,0,1.06-0.1,1.32-0.3C644.93,415.75,645.1,415.26,645.1,414.5z"/>
			<path class="st0" d="M676.84,406.17l-9.58,22.4h-2.8l-10.05-22.4h4.62l7.05,16.19l6.71-16.19H676.84z"/>
			<path class="st0" d="M686.95,428.57h-4.04v-22.4h4.04V428.57z"/>
			<path class="st0" d="M715.86,423.27c0,2.09-0.32,3.49-0.93,4.21c-0.62,0.72-1.75,1.09-3.39,1.09h-10.39
				c-1.64,0-2.77-0.36-3.39-1.09c-0.62-0.72-0.93-2.12-0.93-4.21v-11.8c0-2.09,0.31-3.49,0.93-4.21c0.62-0.72,1.75-1.09,3.39-1.09
				h10.39c2.07,0,3.35,0.62,3.85,1.87c0.32,0.72,0.47,2.58,0.47,5.56l-4.05,0.82v-4.26h-10.92v14.19h10.92v-4.82l4.05,1.08V423.27z"
				/>
			<path class="st0" d="M743.54,428.57h-17.97v-22.4h17.81v3.82h-13.76v4.99h8.03v3.82h-8.03v5.55h13.93V428.57z"/>
			<path class="st0" d="M771.27,423.27c0,2.09-0.32,3.49-0.95,4.21c-0.63,0.72-1.76,1.09-3.41,1.09h-10.75
				c-1.78,0-2.95-0.41-3.51-1.22c-0.56-0.81-0.84-2.37-0.84-4.68l3.57-0.96v2.65h12.31v-5.12h-10.86c-1.64,0-2.77-0.36-3.39-1.08
				c-0.62-0.72-0.93-2.13-0.93-4.21v-2.47c0-2.09,0.31-3.49,0.93-4.21c0.62-0.72,1.75-1.09,3.39-1.09h9.88
				c1.66,0,2.8,0.37,3.41,1.11c0.6,0.74,0.91,2.16,0.91,4.27l-3.58,1.08v-2.56h-11.4v4.82h10.86c1.64,0,2.78,0.36,3.41,1.09
				c0.63,0.72,0.95,2.12,0.95,4.21V423.27z"/>
		</g>
		<g>
			<path class="st0" d="M451.35,474.65h-17.09v-22.4h4.04v18.18h13.05V474.65z"/>
			<path class="st0" d="M462.69,474.65h-4.05v-22.4h4.05V474.65z"/>
			<path class="st0" d="M495.64,474.65h-3.74v-13.93c0-0.49,0.05-1.26,0.14-2.3c-0.21,0.55-0.54,1.33-1.02,2.35l-6.54,11.2h-0.81
				l-6.54-11.24c-0.47-0.81-0.82-1.58-1.05-2.3c0.07,0.9,0.1,1.64,0.1,2.21v14.02h-3.27v-22.4h3.27l8.2,13.54l8.03-13.54h3.23
				V474.65z"/>
			<path class="st0" d="M509.57,474.65h-4.04v-22.4h4.04V474.65z"/>
			<path class="st0" d="M535.94,456.25h-8.03v18.4h-4.04v-18.4h-7.99v-3.99h20.07V456.25z"/>
			<path class="st0" d="M560.23,474.65h-17.97v-22.4h17.81v3.82H546.3v4.99h8.03v3.82h-8.03v5.55h13.93V474.65z"/>
			<path class="st0" d="M590.21,463.32c0,4.35-1.28,7.54-3.85,9.59c-1.47,1.16-3.84,1.74-7.15,1.74h-10.15v-22.4h11.19
				c3.02,0,5.37,0.87,7.08,2.6C589.25,456.77,590.21,459.59,590.21,463.32z M586.03,463.24c0-4.66-1.91-6.99-5.74-6.99h-7.18v14.19
				h5.23c2.47,0,4.27-0.4,5.39-1.21C585.26,468.13,586.03,466.13,586.03,463.24z"/>
		</g>
		<rect x="615.32" y="462.26" class="st1" width="155.95" height="2.16"/>
		<rect x="252.22" y="462.26" class="st1" width="155.95" height="2.16"/>
		<g>
			<path class="st1" d="M566.69,305.23c2.34-0.32,4.57-1.11,6.67-2.39c8.03-4.77,13.59-15.27,13.59-27.36
				c0-8.27-2.6-15.74-6.8-21.31c-4.2-5.41-10.01-8.74-16.44-8.74h-56.2c5.22,4.78,9.14,11.75,10.94,19.88h45.27
				c2.72,0,4.57,1.59,5.57,2.87c0.86,1.11,2.34,3.65,2.34,7.31c0,3.98-1.85,7.63-4.69,9.22c-0.99,0.64-2.11,0.96-3.22,0.96
				l-45.35,0.14c-0.31,1.34-0.66,2.66-1.09,3.93c3.81,4.38,6.7,9.81,8.56,15.8h14.15c5.57,0,10.38,3.82,13.1,9.54l0.37,0.96
				l8.27,20.84l7.91,19.88h17.3l-7.91-19.88L566.69,305.23z"/>
			<path class="st1" d="M514.4,275.34c0,0.97-0.07,1.94-0.17,2.92v-6.36C514.33,273.04,514.4,274.15,514.4,275.34z"/>
			<path class="st1" d="M522.16,312.16c-0.45-2.3-1.14-4.51-1.96-6.63c-2.16-5.66-5.46-10.48-9.51-13.97
				c1.96-3.85,3.19-8.4,3.54-13.3v-6.36c-1.03-11.54-7.18-21.13-15.42-24.88c-1.65-0.75-3.37-1.28-5.15-1.55
				c-0.86-0.13-1.72-0.18-2.61-0.18h-54.5v111.33h58.97c1.1,0,2.2-0.13,3.3-0.31c5.94-0.88,11.26-4.24,15.42-9.24
				c2.03-2.43,3.78-5.21,5.15-8.31c2.33-5.22,3.67-11.23,3.67-17.63C523.05,318.03,522.74,315.03,522.16,312.16z M498.81,335.89
				c-1.07,0.4-2.16,0.66-3.3,0.66v0.17H452v-71.6h39.18c0.86,0,1.68,0.27,2.47,0.57c2.51,1.11,4.46,3.76,5.15,7.07v5.13
				c-0.69,3.31-2.64,5.97-5.15,7.03c-0.79,0.35-1.62,0.57-2.47,0.57h-34.1v19.89h38.43c1.13,0,2.23,0.27,3.3,0.66
				c5.05,1.86,8.83,7.82,8.83,14.9C507.63,328.07,503.85,334.03,498.81,335.89z"/>
		</g>
	</g>
</g>
</svg>
